<?xml version="1.0" encoding="UTF-8" standalone="no"?>
<svg
   viewBox="0 0 80 40"
   aria-hidden="true"
   version="1.1"
   id="svg1"
   sodipodi:docname="logo.svg"
   inkscape:version="1.3 (0e150ed, 2023-07-21)"
   inkscape:export-filename="logo.svg"
   inkscape:export-xdpi="96"
   inkscape:export-ydpi="96"
   width="80"
   height="40"
   xmlns:inkscape="http://www.inkscape.org/namespaces/inkscape"
   xmlns:sodipodi="http://sodipodi.sourceforge.net/DTD/sodipodi-0.dtd"
   xmlns="http://www.w3.org/2000/svg"
   xmlns:svg="http://www.w3.org/2000/svg">
  <defs
     id="defs1" />
  <sodipodi:namedview
     id="namedview1"
     pagecolor="#ffffff"
     bordercolor="#000000"
     borderopacity="0.25"
     inkscape:showpageshadow="2"
     inkscape:pageopacity="0.0"
     inkscape:pagecheckerboard="0"
     inkscape:deskcolor="#d1d1d1"
     inkscape:zoom="8.1603774"
     inkscape:cx="45.157225"
     inkscape:cy="18.320231"
     inkscape:window-width="1392"
     inkscape:window-height="1212"
     inkscape:window-x="4480"
     inkscape:window-y="25"
     inkscape:window-maximized="0"
     inkscape:current-layer="svg1"
     inkscape:export-bgcolor="#fffffffc" />
  <path
     id="text5"
     style="font-style:normal;font-variant:normal;font-weight:normal;font-stretch:normal;font-size:19.4508px;line-height:0.8;font-family:'Brush Script MT';-inkscape-font-specification:'Brush Script MT';fill:#000000;stroke-width:1.18455;stroke-dasharray:none"
     d="M 49.598853 3.1077184 C 49.421567 3.0950551 49.072951 3.3605242 48.553757 3.9050447 C 48.034563 4.4432337 47.380513 5.241495 46.589059 6.298878 C 45.803936 7.3499292 44.855998 8.7044998 43.747962 10.363388 C 43.222436 11.154842 42.899286 11.792058 42.778985 12.273263 C 42.729833 12.469871 42.699019 12.654086 42.669949 12.836954 C 41.815514 13.565162 41.17197 13.943939 40.756683 13.943939 C 40.326132 13.943939 40.110699 13.709721 40.110699 13.24118 C 40.110699 12.956256 40.171438 12.716158 40.291739 12.519878 C 40.418372 12.323597 40.633805 12.019144 40.937723 11.607588 C 41.247973 11.1897 41.402668 10.904739 41.402668 10.75278 C 41.402668 10.6768 41.383054 10.591868 41.345064 10.496894 C 41.307074 10.395588 41.254244 10.265793 41.184596 10.107502 C 41.114948 9.949211 41.058164 9.8194161 41.013843 9.7181099 C 41.23545 9.6421303 41.390144 9.5796298 41.478787 9.5289767 C 41.56743 9.471992 41.610452 9.3852057 41.610452 9.2712363 C 41.610452 9.2015883 41.577237 9.0942249 41.507589 8.9485973 C 41.444272 8.8029697 41.354112 8.6761144 41.240143 8.5684766 C 41.126173 8.4545072 41.002798 8.3978859 40.869833 8.3978859 C 40.375966 8.3978859 39.676836 8.6096732 38.771412 9.0338927 C 37.865989 9.4581122 36.931812 10.107087 35.969403 10.980852 C 35.6085 11.322761 35.346089 11.598903 35.181467 11.807847 C 35.016844 12.016791 34.90723 12.222699 34.850245 12.425311 C 34.825103 12.511914 34.806691 12.611957 34.792642 12.718282 C 34.322849 13.152294 33.934379 13.509516 33.757832 13.669511 C 33.55522 13.853128 33.361298 14.008294 33.177681 14.134927 C 32.994063 14.255228 32.82371 14.314789 32.665419 14.314789 C 32.355169 14.314789 32.110315 14.187934 31.933029 13.934668 C 31.762075 13.681403 31.677927 13.351579 31.677927 12.946354 C 31.677927 12.769069 31.709245 12.517212 31.772561 12.187967 C 33.051552 10.851992 34.048365 9.5433702 34.76384 8.2643801 C 35.479315 6.9790583 35.837738 5.8976903 35.837738 5.0175931 C 35.837738 4.7326696 35.814169 4.5326406 35.769848 4.4186712 C 35.725526 4.2983702 35.637423 4.2388092 35.504459 4.2388092 C 35.396821 4.2388092 35.247979 4.2954306 35.05803 4.4094 C 34.589489 4.6816603 34.080327 5.1589166 33.529475 5.8427331 C 32.984954 6.520218 32.456178 7.3184794 31.943315 8.2365663 C 31.436785 9.1483217 31.031384 10.051007 30.727466 10.943767 C 30.423547 11.830196 30.27075 12.595353 30.27075 13.24118 C 30.27075 14.038966 30.398081 14.685001 30.651346 15.178868 C 30.910943 15.666404 31.265412 15.911296 31.714958 15.911296 C 32.511203 15.911296 33.541272 15.079964 34.792642 13.463689 C 34.821954 13.769562 34.88098 14.071549 35.000427 14.362999 C 35.165049 14.742897 35.353119 15.053229 35.562063 15.293831 C 35.771007 15.534434 35.945315 15.653555 36.084611 15.653555 C 36.375866 15.653555 36.745993 15.438828 37.195539 15.008277 C 37.645085 14.571395 38.332511 13.840428 39.256929 12.814703 C 38.896026 13.764448 38.713809 14.489536 38.713809 14.989735 C 38.713809 15.306317 38.764741 15.543475 38.866047 15.701766 C 38.973685 15.866388 39.151948 15.948381 39.398881 15.948381 C 40.05308 15.948381 41.130676 15.121685 42.604116 13.523025 C 42.603741 13.545556 42.600002 13.571213 42.600002 13.593487 C 42.600002 14.80916 42.846754 15.416212 43.340621 15.416212 C 43.460922 15.416212 43.586195 15.343038 43.71916 15.197411 C 43.852124 15.051783 44.108683 14.738511 44.488581 14.257307 C 44.868479 13.769771 45.264072 13.295455 45.675629 12.833245 C 45.808593 12.674954 45.973094 12.485599 46.169375 12.263991 C 46.365655 12.036053 46.590896 11.819471 46.844161 11.616859 C 47.097426 11.407915 47.367747 11.224439 47.65267 11.066148 C 47.076492 11.901923 46.631863 12.629951 46.321613 13.250451 C 46.017695 13.864619 45.866955 14.406231 45.866955 14.874772 C 45.866955 15.457282 46.113707 15.748122 46.607574 15.748122 C 46.816518 15.748122 47.069122 15.657311 47.366709 15.473693 C 47.670628 15.290076 48.023198 15.021667 48.422091 14.667096 C 48.808811 14.322674 49.27083 13.872115 49.79018 13.343163 C 49.821096 13.707625 49.886047 14.053824 50.01648 14.362999 C 50.193766 14.768224 50.428813 15.087375 50.720068 15.321645 C 51.011323 15.555916 51.334473 15.672098 51.689045 15.672098 C 52.315876 15.672098 53.040472 15.186023 53.863585 14.210951 C 54.338457 14.236278 54.702733 14.185535 54.955998 14.058903 C 55.172057 13.950873 55.4595 13.730078 55.795366 13.43773 C 55.800954 13.95635 55.894918 14.414678 56.085442 14.808019 C 56.281723 15.213243 56.493202 15.416212 56.72114 15.416212 C 56.83511 15.416212 56.950736 15.353711 57.064705 15.227079 C 57.178675 15.100446 57.364687 14.849675 57.624284 14.476108 C 57.890213 14.09621 58.127158 13.788818 58.336102 13.554548 C 59.089566 12.718772 59.596831 12.171281 59.856428 11.911684 C 60.122357 11.645756 60.324028 11.513021 60.463324 11.513021 C 60.589957 11.513021 60.654651 11.575522 60.654651 11.702154 C 60.654651 11.809792 60.635037 11.890699 60.597047 11.941352 C 60.14117 12.701148 59.788599 13.327692 59.541665 13.821559 C 59.294731 14.309095 59.171355 14.647738 59.171355 14.837687 C 59.171355 15.306228 59.335856 15.540446 59.665101 15.540446 C 59.96902 15.540446 60.300079 15.343357 60.654651 14.950796 C 60.838268 14.741852 61.086917 14.456891 61.403499 14.095988 C 61.720081 13.728753 62.129436 13.302239 62.629635 12.814703 C 63.129834 12.327167 63.701634 11.819746 64.34746 11.29422 C 64.132185 11.648792 63.89524 12.041116 63.635643 12.471667 C 63.376046 12.895887 63.166465 13.2599 63.008174 13.563819 C 62.849883 13.867737 62.734417 14.132121 62.658437 14.353728 C 62.582458 14.575335 62.54323 14.793002 62.54323 15.008277 C 62.54323 15.229885 62.609821 15.416301 62.742785 15.56826 C 62.87575 15.713888 63.040251 15.787061 63.236532 15.787061 C 63.458139 15.787061 63.734311 15.694396 64.063556 15.510778 C 64.399133 15.320829 64.790772 15.040662 65.240318 14.667096 C 65.649164 14.321592 66.113709 13.900304 66.606349 13.439584 C 66.634003 13.753869 66.695667 14.063902 66.818248 14.362999 C 66.982871 14.742897 67.168883 15.053229 67.377827 15.293831 C 67.586771 15.534434 67.761079 15.653555 67.900375 15.653555 C 68.19163 15.653555 68.561758 15.438828 69.011304 15.008277 C 69.46085 14.571395 70.148275 13.840428 71.072694 12.814703 C 70.71179 13.764448 70.53163 14.489536 70.53163 14.989735 C 70.53163 15.306317 70.582562 15.543475 70.683869 15.701766 C 70.791506 15.866388 70.967712 15.948381 71.214646 15.948381 C 71.904794 15.948381 73.050449 15.059308 74.652353 13.280119 L 74.652353 12.69974 C 73.708939 13.529184 73.015662 13.943939 72.572447 13.943939 C 72.141896 13.943939 71.926463 13.709721 71.926463 13.24118 C 71.926463 12.956256 71.987202 12.716158 72.107503 12.519878 C 72.234136 12.323597 72.449569 12.019144 72.753488 11.607588 C 73.063738 11.1897 73.218432 10.904739 73.218432 10.75278 C 73.218432 10.6768 73.200875 10.591868 73.162885 10.496894 C 73.124896 10.395588 73.070009 10.265793 73.000361 10.107502 C 72.930713 9.949211 72.873928 9.8194161 72.829607 9.7181099 C 73.051214 9.6421303 73.205908 9.5796298 73.294551 9.5289767 C 73.383194 9.471992 73.428274 9.3852057 73.428274 9.2712363 C 73.428274 9.2015883 73.393001 9.0942249 73.323353 8.9485973 C 73.260037 8.8029697 73.171934 8.6761144 73.057964 8.5684766 C 72.943995 8.4545072 72.820619 8.3978859 72.687655 8.3978859 C 72.193787 8.3978859 71.4926 8.6096732 70.587177 9.0338927 C 69.681753 9.4581122 68.749633 10.107087 67.787225 10.980852 C 67.426322 11.322761 67.161854 11.598903 66.997231 11.807847 C 66.832609 12.016791 66.722994 12.222699 66.66601 12.425311 C 66.637259 12.524341 66.616479 12.636111 66.602234 12.76093 C 66.144384 13.162101 65.756019 13.492138 65.526279 13.66024 C 65.273014 13.850189 65.053626 13.943939 64.870008 13.943939 C 64.711717 13.943939 64.576637 13.893197 64.462668 13.791891 C 64.348698 13.684253 64.291914 13.54564 64.291914 13.374686 C 64.291914 13.08343 64.389824 12.804349 64.586104 12.53842 C 64.788717 12.272491 65.088298 11.919151 65.487191 11.475936 C 65.892415 11.02639 66.096144 10.741429 66.096144 10.621128 C 66.096144 10.437511 66.029553 10.192619 65.896589 9.8887007 C 65.763624 9.5784506 65.624589 9.4262242 65.478962 9.4325558 C 65.402982 9.4325558 65.228674 9.5476527 64.956414 9.7755916 C 64.684154 10.00353 64.366856 10.280758 64.005953 10.610003 C 63.651381 10.939248 63.161832 11.392987 62.535001 11.969166 C 61.908169 12.539013 61.158107 13.210419 60.284341 13.982879 C 60.86052 13.223083 61.328557 12.577048 61.68946 12.04519 C 62.056695 11.507001 62.334765 11.058056 62.524714 10.697152 C 62.714663 10.329918 62.810676 10.076207 62.810676 9.9369111 C 62.810676 9.7279672 62.745982 9.5533093 62.619349 9.4140134 C 62.499048 9.2683858 62.344354 9.1952122 62.154405 9.1952122 C 61.844155 9.1952122 61.46422 9.36987 61.014674 9.7181099 C 60.57146 10.060018 60.087763 10.494266 59.562238 11.019791 C 59.043044 11.538986 58.5652 12.019181 58.128317 12.462396 C 57.691434 12.90561 57.419216 13.128071 57.311578 13.128071 C 57.178614 13.128071 57.112023 13.041284 57.112023 12.87033 C 57.112023 12.750029 57.196171 12.557734 57.367125 12.291805 C 57.538079 12.019545 57.718239 11.791205 57.908188 11.607588 C 58.26276 11.284675 58.554591 10.971403 58.78253 10.667485 C 59.016801 10.363566 59.134324 10.1459 59.134324 10.012935 C 59.134324 9.8863025 59.071688 9.7877579 58.945055 9.7181099 C 58.818422 9.6421303 58.661671 9.6050008 58.478054 9.6050008 C 58.180467 9.6050008 57.896545 9.7377354 57.624284 10.003664 C 57.358356 10.263261 57.013694 10.698594 56.589475 11.312763 C 56.317214 11.736982 56.113486 12.092177 55.980521 12.3771 C 55.932784 12.484509 55.903284 12.606703 55.873543 12.729407 C 55.667368 12.884255 55.489791 13.017628 55.420942 13.070589 C 55.338631 13.127574 55.242619 13.184195 55.134981 13.24118 C 55.033675 13.291833 54.929913 13.317204 54.822275 13.317204 L 54.680323 13.317204 L 54.509569 13.146613 C 54.756503 12.741389 54.948368 12.307141 55.087664 11.844932 C 55.233291 11.382722 55.305735 11.001071 55.305735 10.697152 C 55.305735 10.386902 55.262712 10.173261 55.174069 10.059291 C 55.085426 9.9389904 54.920925 9.8540584 54.680323 9.8034053 C 54.825951 9.6387828 54.898394 9.4924356 54.898394 9.3658029 C 54.898394 9.2011804 54.812189 9.0761794 54.641235 8.9875365 C 54.470281 8.892562 54.237291 8.8447595 53.939704 8.8447595 C 53.521816 8.8447595 53.069438 8.977494 52.581902 9.2434226 C 52.094366 9.5030196 51.634079 9.8475415 51.203528 10.278093 C 50.779308 10.702312 50.430692 11.161931 50.158432 11.655798 C 49.949484 12.043845 49.826722 12.403503 49.78195 12.736824 C 48.783053 13.511776 48.127687 13.906854 47.831653 13.906854 C 47.54673 13.906854 47.405797 13.757568 47.405797 13.459981 C 47.405797 13.257369 47.478241 13.017271 47.623868 12.738679 C 47.769496 12.453755 47.975122 12.13275 48.241051 11.778179 C 48.513311 11.417275 48.877587 10.96539 49.333464 10.42087 C 49.396781 10.325895 49.428099 10.246842 49.428099 10.183526 C 49.428099 10.037898 49.345848 9.8544217 49.181226 9.6328145 C 49.016603 9.4048757 48.838341 9.2897788 48.648392 9.2897788 C 48.445779 9.2897788 48.130539 9.4449448 47.699988 9.7551949 C 47.269437 10.059113 46.742558 10.512853 46.122057 11.114358 C 45.501557 11.715863 44.767154 12.488754 43.918715 13.432167 L 43.918715 12.291805 C 44.425246 11.734621 44.875727 11.218381 45.268288 10.743509 C 45.667181 10.262304 46.1039 9.7177537 46.578773 9.1099168 C 47.059977 8.4957483 47.420297 8.0243711 47.660899 7.6951261 C 47.901502 7.3595495 48.310857 6.7837485 48.887036 5.9669677 C 49.418893 5.1945083 49.790918 4.6275261 50.006193 4.266623 C 50.227801 3.8993882 50.339472 3.6368587 50.339472 3.4785679 C 50.339472 3.389925 50.268926 3.3108722 50.12963 3.2412242 C 49.996666 3.1715762 49.82046 3.1267133 49.598853 3.1077184 z M 20.280621 3.4025437 C 19.729769 3.4025437 19.012923 3.659194 18.132825 4.1720563 C 17.252728 4.6785871 16.37929 5.3558724 15.511857 6.2043113 C 14.650754 7.0464187 13.935965 7.989173 13.366118 9.0338927 C 12.802603 10.072281 12.520578 11.11064 12.520578 12.149028 C 12.520578 12.921487 12.638102 13.595833 12.872372 14.172012 C 13.112974 14.741859 13.441977 15.179046 13.859864 15.482965 C 14.284084 15.780551 14.771735 15.929838 15.322587 15.929838 C 16.06972 15.929838 16.890328 15.679067 17.783089 15.178868 C 18.682181 14.672337 19.449799 14.008665 20.089294 13.185552 C 20.557835 12.577715 20.967191 11.93168 21.315431 11.247864 C 21.66367 10.564047 21.930036 9.8926413 22.113653 9.2341514 C 22.303602 8.5693298 22.397557 7.9799161 22.397557 7.4670537 C 22.397557 7.1378088 22.330966 6.833356 22.198002 6.5547641 C 22.071369 6.2698405 21.87555 6.0462948 21.609621 5.8816723 C 21.350024 5.7170498 21.036681 5.6350574 20.669446 5.6350574 C 20.498492 5.6350574 20.322286 5.6497554 20.138669 5.6814136 C 19.961383 5.7130718 19.78312 5.7520555 19.605835 5.7963769 L 19.093573 5.9280285 C 19.562114 5.6747631 20.014492 5.4883469 20.451375 5.3680458 C 20.888258 5.2414131 21.401375 5.1682396 21.990217 5.1492447 C 21.781273 4.5350761 21.556033 4.0920096 21.315431 3.8197494 C 21.074828 3.5411575 20.730167 3.4025437 20.280621 3.4025437 z M 29.986846 3.7066403 C 29.739913 3.7066403 29.428467 3.8481936 29.054901 4.1331172 C 28.687666 4.4117091 28.254902 4.8294045 27.754703 5.3865883 C 27.254503 5.9374405 26.659136 6.6507699 25.968988 7.5245354 C 25.468788 8.1576988 25.01641 8.7647501 24.611186 9.3472605 C 24.212293 9.9234392 23.883291 10.462111 23.623694 10.96231 C 23.370428 11.462509 23.174609 11.978749 23.035313 12.510606 C 22.902348 13.036132 22.835757 13.583622 22.835757 14.153469 C 22.835757 14.571357 22.872928 14.890508 22.948907 15.112115 C 23.024887 15.327391 23.148263 15.434754 23.319217 15.434754 C 23.401528 15.434754 23.493586 15.378133 23.594892 15.264163 C 23.696198 15.150194 23.876358 14.921854 24.135955 14.579946 C 24.395552 14.231706 24.687384 13.858874 25.010297 13.459981 C 25.282557 14.03616 25.515547 14.485105 25.711828 14.808019 C 25.91444 15.130932 26.139681 15.384643 26.386614 15.56826 C 26.63988 15.751877 26.921905 15.844543 27.232155 15.844543 C 27.555068 15.844543 27.956514 15.632756 28.437718 15.208536 C 28.918922 14.777985 29.51429 14.146648 30.223433 13.317204 L 30.223433 12.681197 C 29.729566 13.137075 29.363393 13.466899 29.122791 13.669511 C 28.88852 13.872123 28.657428 14.039048 28.429489 14.172012 C 28.20155 14.304976 27.988014 14.372271 27.791734 14.372271 C 27.570126 14.372271 27.388069 14.307916 27.242441 14.181283 C 27.096813 14.048319 26.928358 13.839471 26.738409 13.554548 C 27.840113 12.870731 28.656766 12.266619 29.188624 11.741094 C 29.720481 11.209236 29.986846 10.633435 29.986846 10.012935 C 29.986846 9.7090168 29.931959 9.4435477 29.824322 9.2156089 C 29.716684 8.9813384 29.565944 8.8633019 29.369664 8.8633019 C 28.88846 8.8633019 28.206886 9.2361344 27.326789 9.9832673 C 26.453024 10.7304 25.297561 11.873183 23.86028 13.41177 L 23.86028 12.595902 C 26.006704 10.082243 27.640011 8.1011292 28.76071 6.6511849 C 29.88141 5.1949091 30.441504 4.3488451 30.441504 4.1145747 C 30.441504 3.8423144 30.290765 3.7066403 29.986846 3.7066403 z M 34.65069 6.119016 C 34.751996 6.119016 34.800871 6.1921896 34.800871 6.3378172 C 34.800871 6.5277662 34.722575 6.8079332 34.564284 7.1814997 C 34.412325 7.5550661 34.200846 7.9775554 33.928586 8.4460963 C 33.656326 8.9146372 33.364494 9.3547641 33.054244 9.7663203 C 32.750326 10.177877 32.433028 10.54483 32.103783 10.867743 C 32.306395 9.9306613 32.649159 9.002605 33.130363 8.0845181 C 33.611567 7.1600995 34.044332 6.5394355 34.430561 6.2228538 C 34.538199 6.1532058 34.6127 6.119016 34.65069 6.119016 z M 20.317652 6.4898654 C 20.874836 6.4898654 21.152906 6.8402665 21.152906 7.5430779 C 21.152906 8.4991546 20.792585 9.5628851 20.070779 10.734237 C 19.355304 11.899258 18.511287 12.895694 17.536216 13.725138 C 16.567476 14.554582 15.774231 14.969338 15.160063 14.969338 C 14.279965 14.969338 13.841349 14.497961 13.841349 13.554548 C 13.841349 13.174649 13.980384 12.624219 14.258976 11.902413 C 14.537568 11.180607 14.901843 10.4467 15.351389 9.6995674 C 15.807267 8.946103 16.25569 8.3313182 16.698905 7.8564457 C 16.179711 8.7745326 15.86447 9.5308707 15.750501 10.126044 C 16.352006 9.2396155 16.753452 8.6833064 16.956064 8.4553675 C 17.525911 7.8285357 18.121279 7.3435459 18.741779 7.0016377 C 19.362279 6.6597294 19.887101 6.4898654 20.317652 6.4898654 z M 40.520096 9.9369111 C 39.747637 11.019621 39.085678 11.877443 38.534826 12.510606 C 37.983974 13.137438 37.374844 13.647799 36.710022 14.04036 C 36.532737 14.129003 36.409361 14.172012 36.339713 14.172012 C 36.219412 14.172012 36.125457 14.109511 36.055809 13.982879 C 35.986161 13.849914 35.950888 13.681136 35.950888 13.478523 C 35.950888 12.92134 36.299504 12.379728 36.995984 11.854203 C 37.698795 11.328677 38.873872 10.690376 40.520096 9.9369111 z M 72.335861 9.9369111 C 71.563401 11.019621 70.901442 11.877443 70.35059 12.510606 C 69.799738 13.137438 69.192666 13.647799 68.527844 14.04036 C 68.350558 14.129003 68.227182 14.172012 68.157534 14.172012 C 68.037233 14.172012 67.941221 14.109511 67.871573 13.982879 C 67.801925 13.849914 67.766652 13.681136 67.766652 13.478523 C 67.766652 12.92134 68.115268 12.379728 68.811748 11.854203 C 69.514559 11.328677 70.689636 10.690376 72.335861 9.9369111 z M 54.005537 10.164984 C 53.682623 10.703172 53.439827 11.180429 53.275204 11.598317 C 53.110582 12.009873 53.028331 12.41581 53.028331 12.814703 C 53.028331 13.086963 53.081161 13.371924 53.188798 13.669511 C 52.549303 14.138052 52.092971 14.372271 51.82071 14.372271 C 51.2382 14.372271 50.948426 14.163423 50.948426 13.745535 C 50.948426 13.68855 51.026721 13.305045 51.185012 12.595902 C 51.273655 12.329973 51.447963 12.067444 51.70756 11.807847 C 51.967157 11.541918 52.282398 11.282328 52.655964 11.029063 C 53.029531 10.769466 53.480011 10.481565 54.005537 10.164984 z M 28.53441 10.344845 C 28.623053 10.344845 28.666076 10.395588 28.666076 10.496894 C 28.666076 10.737496 28.538745 11.039009 28.28548 11.399912 C 28.032214 11.754484 27.726781 12.099006 27.365878 12.434582 C 27.011306 12.763827 26.713622 13.006865 26.47302 13.165156 C 26.118448 12.930885 25.820765 12.814703 25.580162 12.814703 C 26.137346 12.092897 26.707248 11.500543 27.289758 11.038334 C 27.8786 10.576125 28.293808 10.344845 28.53441 10.344845 z M 13.518357 19.48443 C 13.14479 19.48443 12.692412 19.548785 12.160555 19.675418 C 11.635029 19.80205 11.074935 19.985527 10.479761 20.226129 L 10.383069 19.873822 C 9.6675943 20.247389 9.1369204 20.543023 8.7886806 20.758298 C 8.4467723 20.973574 8.2000206 21.171748 8.0480614 21.355366 C 7.9024338 21.538983 7.7966146 21.749685 7.7332983 21.983956 C 7.6699819 22.211894 7.5877314 22.533985 7.4864252 22.951873 C 7.3534609 23.338102 7.2868695 23.634822 7.2868695 23.843766 C 7.2868695 24.090699 7.3730748 24.214615 7.5440289 24.214615 C 7.6516667 24.214615 8.1764884 23.949146 9.1199019 23.417289 C 10.069647 22.885431 10.900062 22.454123 11.609205 22.124878 C 12.318348 21.789302 12.907864 21.622377 13.376405 21.622377 C 13.604344 21.622377 13.786401 21.66724 13.925697 21.755883 C 14.064993 21.838194 14.135539 21.954377 14.135539 22.106336 C 14.135539 22.334275 13.900492 22.740212 13.431951 23.322722 C 12.96341 23.898901 12.187882 24.771421 11.105173 25.942773 C 10.927887 26.126391 10.751681 26.335239 10.574396 26.569509 C 10.39711 26.80378 10.193381 27.082861 9.9654421 27.405775 C 9.7375033 27.728688 9.4888541 28.083883 9.2165938 28.470113 C 9.1089561 28.61574 9.0227508 28.821648 8.9594344 29.087577 C 8.8961181 29.347174 8.8647997 29.550142 8.8647997 29.69577 C 8.8647997 30.214964 8.9725164 30.66097 9.187792 31.034536 C 9.4030676 31.401771 9.6654784 31.585248 9.9757285 31.585248 C 10.444269 31.585248 11.18057 31.074887 12.1873 30.055494 C 13.200361 29.036101 14.630099 27.405388 16.472604 25.16399 C 15.883762 26.240367 15.439134 27.140113 15.141547 27.861919 C 14.84396 28.583726 14.695118 29.213208 14.695118 29.751397 C 14.695118 30.004663 14.710777 30.227123 14.742436 30.417072 C 14.774094 30.607021 14.838788 30.784619 14.933762 30.949241 C 15.035068 31.107532 15.201467 31.288069 15.435737 31.490681 C 15.720661 31.71862 15.992879 31.831863 16.252476 31.831863 C 16.480415 31.831863 16.832985 31.690309 17.307858 31.405386 C 17.782731 31.120462 18.313404 30.686215 18.902246 30.103704 C 19.49742 29.514862 20.055617 28.809266 20.574811 27.986154 C 21.176317 27.04274 21.679627 26.114684 22.084852 25.202929 C 22.496408 24.291173 22.795989 23.515344 22.985938 22.875849 C 23.182219 22.230022 23.282186 21.798714 23.282186 21.583438 C 23.282186 21.387157 23.233151 21.194862 23.138177 21.004913 C 23.049534 20.808632 22.93992 20.710088 22.806955 20.710088 C 22.686654 20.710088 22.439902 20.972617 22.066336 21.498143 C 21.69277 22.017337 21.5047 22.324729 21.5047 22.419704 C 21.5047 22.540005 21.518462 22.638549 21.543788 22.714529 L 21.704256 23.198488 C 21.431995 23.730345 21.163732 24.237766 20.897804 24.71897 C 20.631875 25.200174 20.328339 25.708681 19.986431 26.24687 C 19.644522 26.785059 19.297804 27.272988 18.949564 27.709871 C 18.601324 28.146754 18.215537 28.567389 17.791318 28.972614 C 17.468404 29.276532 17.174675 29.510751 16.908747 29.675373 C 16.642818 29.833664 16.458703 29.912717 16.357397 29.912717 C 16.281417 29.912717 16.205019 29.872648 16.129039 29.790337 C 16.059391 29.701694 16.026175 29.606089 16.026175 29.504782 C 16.026175 29.219859 16.253313 28.624566 16.709191 27.719142 C 17.165069 26.807387 17.823073 25.684096 18.684175 24.348121 C 19.076737 23.740284 19.362716 23.291338 19.540002 23.000083 C 19.717288 22.702496 19.881789 22.417535 20.033748 22.145275 C 20.185707 21.866683 20.262106 21.711517 20.262106 21.679859 C 20.262106 21.578553 20.222878 21.432206 20.146898 21.242257 C 20.07725 21.052308 19.991045 20.888323 19.889739 20.749027 C 19.788433 20.609731 19.70033 20.539497 19.62435 20.539497 C 19.523044 20.539497 19.290054 20.675171 18.922819 20.947431 C 18.561916 21.21336 18.209345 21.554942 17.867437 21.97283 C 17.848442 22.004488 17.674134 22.238707 17.344889 22.67559 C 17.015644 23.106141 16.594584 23.630114 16.081722 24.244283 C 15.575191 24.85212 14.95246 25.554776 14.211659 26.352562 C 13.515179 27.106027 12.970743 27.684767 12.578182 28.089992 C 12.185621 28.495216 11.848709 28.805548 11.570117 29.020824 C 11.291525 29.2361 11.076092 29.343463 10.924132 29.343463 C 10.740515 29.343463 10.650515 29.273229 10.650515 29.133933 C 10.650515 28.886999 11.29286 28.029177 12.578182 26.560238 C 13.021396 26.06637 13.683355 25.180237 14.563453 23.901247 C 14.949682 23.356727 15.208138 22.933152 15.341103 22.629234 C 15.474067 22.325315 15.540658 21.944749 15.540658 21.488872 C 15.540658 20.653096 15.385964 20.111485 15.075714 19.864551 C 14.771796 19.611286 14.252826 19.48443 13.518357 19.48443 z M 31.55449 19.797798 C 31.446852 19.797798 31.298011 19.856274 31.108061 19.970243 C 30.639521 20.242503 30.128301 20.71976 29.577449 21.403576 C 29.032928 22.081061 28.504152 22.879322 27.991289 23.797409 C 27.484759 24.709165 27.079358 25.61185 26.775439 26.50461 C 26.531913 27.214895 26.391803 27.843848 26.343412 28.399651 C 25.868409 28.791604 25.457375 29.101578 25.141963 29.295253 C 24.787391 29.510528 24.462344 29.619746 24.164757 29.619746 C 23.892497 29.619746 23.671211 29.543633 23.500257 29.391673 C 23.329303 29.239714 23.243098 29.048504 23.243098 28.820565 C 23.243098 28.554637 23.325348 28.317478 23.489971 28.108534 C 23.660925 27.89959 24.021245 27.529697 24.572098 26.99784 C 24.768378 26.814223 24.991721 26.50683 25.238655 26.076279 C 25.49192 25.645728 25.617193 25.329517 25.617193 25.126905 C 25.617193 24.829318 25.425329 24.680031 25.039099 24.680031 C 24.291966 24.680031 23.467403 25.379748 22.568311 26.779039 C 22.378362 27.089289 22.249134 27.317629 22.179486 27.463256 C 22.109838 27.608884 22.049099 27.7953 21.998446 28.023239 C 21.947793 28.244846 21.922327 28.479065 21.922327 28.725999 C 21.922327 29.371825 22.049657 29.967118 22.302923 30.511639 C 22.556188 31.056159 22.941975 31.329362 23.461169 31.329362 C 23.834735 31.329362 24.287113 31.129333 24.818971 30.73044 C 25.290173 30.371428 25.799372 29.835043 26.335183 29.172872 C 26.369712 29.799294 26.489359 30.326276 26.701378 30.739711 C 26.960975 31.227247 27.315443 31.470285 27.764989 31.470285 C 28.56408 31.470285 29.597541 30.637548 30.855017 29.009698 C 30.889409 29.268708 30.942002 29.526886 31.031942 29.781065 C 31.17757 30.192622 31.351878 30.531264 31.55449 30.797193 C 31.763434 31.063121 31.949447 31.195856 32.114069 31.195856 C 32.215375 31.195856 32.401388 31.088493 32.673648 30.873217 C 32.95224 30.65161 33.310663 30.318846 33.747546 29.875632 C 34.19076 29.432418 34.690116 28.893746 35.2473 28.260583 C 35.09534 28.963394 35.020999 29.618248 35.020999 30.226085 C 35.020999 30.675631 35.083636 31.014273 35.210269 31.242212 C 35.343233 31.470151 35.558666 31.585248 35.856253 31.585248 C 36.59317 31.585248 37.64052 30.707684 38.997713 28.959634 C 39.013632 29.221729 39.039098 29.458206 39.084118 29.638288 C 39.160098 29.91688 39.348168 30.20772 39.645754 30.511639 C 40.152285 31.018169 40.702573 31.27188 41.297747 31.27188 C 41.759956 31.27188 42.310244 31.068912 42.949739 30.663687 C 43.553643 30.275036 44.242427 29.703761 44.998785 28.976322 C 45.024799 29.370118 45.088733 29.751864 45.220971 30.112976 C 45.385593 30.55619 45.612731 30.917264 45.903986 31.195856 C 46.195241 31.468116 46.514437 31.60379 46.862677 31.60379 C 47.217248 31.60379 47.579626 31.502306 47.946861 31.299694 C 48.320427 31.097082 48.717918 30.812121 49.142138 30.444886 C 49.545177 30.101117 50.078015 29.599403 50.697438 28.994864 C 50.724688 29.311112 50.786027 29.622965 50.909337 29.923842 C 51.07396 30.30374 51.259972 30.612218 51.468916 30.85282 C 51.67786 31.093422 51.852168 31.214398 51.991464 31.214398 C 52.282719 31.214398 52.652847 30.999672 53.102393 30.56912 C 53.551939 30.132238 54.239364 29.401271 55.163783 28.375546 C 54.80288 29.325291 54.622719 30.050379 54.622719 30.550578 C 54.622719 30.86716 54.673652 31.104318 54.774958 31.262609 C 54.882596 31.427231 55.058801 31.509224 55.305735 31.509224 C 55.995883 31.509224 57.143596 30.620151 58.745499 28.840962 L 58.745499 28.818711 C 59.486228 28.03503 60.498433 26.866769 61.849928 25.221471 C 61.292744 26.430813 60.515319 27.897541 59.51492 29.619746 C 59.394619 29.822358 59.188993 30.13269 58.897738 30.550578 C 58.606483 30.962134 58.340117 31.369157 58.099515 31.774381 C 57.852581 32.179606 57.646955 32.607974 57.482332 33.05752 C 57.311378 33.513398 57.225173 33.950585 57.225173 34.368473 C 57.225173 34.849677 57.36231 35.089775 57.634571 35.089775 C 57.697887 35.089775 57.807501 35.010722 57.965792 34.852432 C 58.250716 34.504192 58.479911 34.140178 58.650865 33.76028 C 58.821819 33.380382 59.029343 32.867081 59.276276 32.221255 C 59.529542 31.58176 59.760634 31.05964 59.969578 30.654416 C 60.267165 30.831702 60.527678 30.919573 60.749286 30.919573 C 60.774612 30.919573 60.888181 30.894202 61.090793 30.843549 C 61.192099 30.875207 61.336987 30.928889 61.526936 31.004869 C 61.716885 31.080848 61.873636 31.142263 61.993937 31.186585 C 62.114238 31.224575 62.243466 31.255825 62.382762 31.281151 C 62.52839 31.31281 62.66347 31.329362 62.790103 31.329362 C 63.132011 31.329362 63.506093 31.214265 63.911318 30.986326 C 64.316543 30.758387 64.747409 30.453934 65.203287 30.074036 C 65.620413 29.731193 66.048259 29.362273 66.480855 28.978176 C 66.480547 28.998993 66.47674 29.018424 66.47674 29.039366 C 66.47674 29.799163 66.641241 30.397395 66.970486 30.834278 C 67.299731 31.271161 67.746257 31.490681 68.309773 31.490681 C 68.955599 31.490681 69.590035 31.262342 70.216867 30.806464 C 70.836489 30.349571 71.500015 29.695041 72.206252 28.848379 C 72.219872 29.158246 72.245696 29.433982 72.296772 29.638288 C 72.372752 29.91688 72.560822 30.20772 72.858409 30.511639 C 73.364939 31.018169 73.915227 31.27188 74.510401 31.27188 C 74.97261 31.27188 75.522898 31.068912 76.162393 30.663687 C 76.801888 30.252131 77.528541 29.650959 78.33899 28.859504 L 78.33899 28.223498 C 77.921103 28.571737 77.552872 28.856698 77.236291 29.078306 C 76.926041 29.293581 76.61855 29.466385 76.314631 29.599349 C 76.017045 29.725982 75.738975 29.790337 75.479378 29.790337 C 75.346413 29.790337 75.166253 29.770845 74.938314 29.732855 C 75.508161 29.36562 75.972244 29.007486 76.333147 28.659246 C 76.69405 28.304674 76.970223 27.937721 77.160172 27.557823 C 77.350121 27.171593 77.446133 26.77045 77.446133 26.352562 C 77.446133 26.07397 77.420667 25.823199 77.370014 25.601592 C 77.319361 25.379985 77.24486 25.108637 77.149885 24.785723 C 77.061242 24.456478 77.01822 24.231078 77.01822 24.110777 C 77.01822 23.971481 77.029924 23.864118 77.055251 23.788138 L 76.999704 23.606422 C 76.847745 23.530442 76.704755 23.493313 76.571791 23.493313 C 76.039934 23.493313 75.705079 23.882698 75.565783 24.661489 C 74.956583 25.346054 73.832821 26.549466 72.220653 28.249457 C 71.750827 28.65005 71.351939 28.971315 71.025376 29.209957 C 70.696131 29.450559 70.363174 29.644709 70.027598 29.790337 C 69.698353 29.935964 69.379157 30.009138 69.068907 30.009138 C 68.771321 30.009138 68.530421 29.904714 68.346804 29.69577 C 68.163186 29.486826 68.071129 29.194132 68.071129 28.820565 L 68.071129 28.583222 C 68.963889 28.222318 69.713951 27.849486 70.321788 27.463256 C 70.935957 27.070695 71.392289 26.678371 71.689876 26.285809 C 71.987463 25.886916 72.136305 25.486858 72.136305 25.087965 C 72.136305 24.815705 72.048202 24.614591 71.870916 24.481627 C 71.699962 24.342331 71.464915 24.272097 71.167328 24.272097 C 70.793762 24.272097 70.368747 24.376521 69.893875 24.585464 C 69.419002 24.794408 68.941158 25.10474 68.459954 25.516297 C 67.757142 26.117802 67.251935 26.690663 66.941685 27.235184 C 66.765132 27.541449 66.643343 27.870661 66.56726 28.217935 C 65.357724 29.306264 64.38823 29.857089 63.664445 29.857089 C 63.430174 29.857089 63.203037 29.815166 62.981429 29.732855 C 63.620924 29.150345 64.157451 28.611673 64.594333 28.117806 C 65.031216 27.623938 65.368128 27.149621 65.602398 26.693744 C 65.836669 26.231534 65.954192 25.760157 65.954192 25.278953 C 65.954192 25.095336 65.924772 24.97142 65.867787 24.908104 C 65.817134 24.844787 65.703565 24.813537 65.526279 24.813537 C 65.247687 24.813537 64.969617 24.873098 64.691025 24.993399 C 64.418765 25.1137 64.138638 25.279539 63.853714 25.488483 C 63.575122 25.691095 63.210847 25.976056 62.761301 26.343291 C 62.318087 26.704194 61.926448 27.017466 61.584539 27.283394 C 62.021422 26.45395 62.411164 25.771871 62.753072 25.240014 C 63.101312 24.701825 63.45578 24.255819 63.816683 23.901247 C 64.088944 23.628987 64.310229 23.363518 64.481183 23.103921 C 64.658469 22.844324 64.746572 22.647235 64.746572 22.51427 C 64.746572 22.349648 64.638855 22.267655 64.42358 22.267655 C 63.993028 22.267655 63.636663 22.372079 63.351739 22.581023 C 63.066815 22.783635 62.737813 23.135891 62.364247 23.63609 C 61.99068 24.136289 61.479461 24.810635 60.833634 25.659074 C 60.194139 26.507513 59.432372 27.413137 58.545944 28.375546 L 58.545944 28.425611 C 57.708818 29.134373 57.075298 29.504782 56.665594 29.504782 C 56.235043 29.504782 56.019609 29.270564 56.019609 28.802023 C 56.019609 28.517099 56.078291 28.277001 56.198592 28.080721 C 56.325225 27.88444 56.540658 27.579987 56.844577 27.168431 C 57.154827 26.750543 57.311578 26.465582 57.311578 26.313623 C 57.311578 26.237643 57.291964 26.152711 57.253975 26.057737 C 57.215985 25.956431 57.161098 25.826636 57.09145 25.668345 C 57.021802 25.510054 56.965018 25.380259 56.920696 25.278953 C 57.142303 25.202973 57.299055 25.138619 57.387698 25.087965 C 57.47634 25.030981 57.519363 24.946049 57.519363 24.832079 C 57.519363 24.762431 57.48409 24.655068 57.414442 24.50944 C 57.351126 24.363813 57.263023 24.236957 57.149054 24.12932 C 57.035084 24.01535 56.911708 23.958729 56.778744 23.958729 C 56.284877 23.958729 55.585747 24.170516 54.680323 24.594736 C 53.774899 25.018955 52.840722 25.66793 51.878314 26.541695 C 51.517411 26.883604 51.255 27.159746 51.090378 27.36869 C 50.925755 27.577634 50.814084 27.783542 50.757099 27.986154 C 50.726921 28.090102 50.705462 28.209809 50.691266 28.342169 C 49.981411 28.885981 49.352903 29.316608 48.819146 29.610475 C 48.261962 29.914393 47.784118 30.064765 47.385225 30.064765 C 46.998995 30.064765 46.685652 29.948583 46.44505 29.714312 C 46.204448 29.480042 46.085026 29.175589 46.085026 28.802023 C 46.085026 28.59941 46.151618 28.407115 46.284582 28.223498 C 46.423878 28.03988 46.609891 27.859343 46.844161 27.682057 C 47.078432 27.49844 47.513253 27.185168 48.146416 26.741954 C 48.222396 26.684969 48.285033 26.662538 48.335686 26.675201 C 48.39267 26.681533 48.422091 26.721602 48.422091 26.797581 C 48.422091 26.841903 48.418137 26.886766 48.411805 26.931087 C 48.411805 26.975409 48.40785 27.023211 48.401519 27.073864 C 48.401519 27.25115 48.483769 27.339022 48.648392 27.339022 C 48.800351 27.339022 49.005977 27.203348 49.265574 26.931087 C 49.525171 26.652495 49.760219 26.327465 49.969162 25.953899 C 50.178106 25.580333 50.281868 25.290578 50.281868 25.087965 C 50.281868 24.847363 50.203573 24.649189 50.045282 24.490898 C 49.886991 24.332607 49.693069 24.253554 49.46513 24.253554 C 49.148548 24.253554 48.711829 24.426358 48.154646 24.774598 C 47.603793 25.116506 47.006528 25.604435 46.360701 26.237599 C 45.816181 26.769456 45.447951 27.203704 45.258002 27.53928 C 45.127512 27.769813 45.058147 28.031584 45.017301 28.306939 C 44.649492 28.609703 44.309085 28.878492 44.023637 29.078306 C 43.713386 29.293581 43.405896 29.466385 43.101977 29.599349 C 42.80439 29.725982 42.52632 29.790337 42.266723 29.790337 C 42.133759 29.790337 41.953599 29.770845 41.72566 29.732855 C 42.295507 29.36562 42.759589 29.007486 43.120493 28.659246 C 43.481396 28.304674 43.757568 27.937721 43.947517 27.557823 C 44.137466 27.171593 44.233479 26.77045 44.233479 26.352562 C 44.233479 26.07397 44.208012 25.823199 44.157359 25.601592 C 44.106706 25.379985 44.034263 25.108637 43.939288 24.785723 C 43.850645 24.456478 43.805565 24.231078 43.805565 24.110777 C 43.805565 23.971481 43.81727 23.864118 43.842596 23.788138 L 43.78705 23.606422 C 43.635091 23.530442 43.492101 23.493313 43.359137 23.493313 C 42.827279 23.493313 42.492425 23.882698 42.353129 24.661489 C 41.742541 25.347613 40.619957 26.552545 39.001827 28.258728 C 38.390825 28.837878 37.916409 29.254183 37.584364 29.504782 C 37.248788 29.751716 36.970718 29.875632 36.749111 29.875632 C 36.381876 29.875632 36.197761 29.590671 36.197761 29.020824 C 36.197761 28.393992 36.366217 27.713767 36.701793 26.979298 C 37.03737 26.238496 37.438816 25.488038 37.907357 24.728242 C 38.375898 23.968445 38.851844 23.189676 39.333049 22.39189 C 39.814253 21.587772 40.053095 21.02079 40.053095 20.691545 C 40.053095 20.520591 39.994413 20.368365 39.874112 20.2354 C 39.760143 20.096104 39.632812 20.02587 39.493516 20.02587 C 39.366883 20.02587 39.155405 20.22002 38.857818 20.60625 C 38.560231 20.99248 38.190104 21.581893 37.746889 22.373347 C 37.310006 23.164802 36.847821 24.068572 36.360286 25.087965 C 36.062699 24.695404 35.757105 24.500169 35.446855 24.500169 C 35.066957 24.500169 34.497056 24.706077 33.737259 25.117633 C 32.977463 25.52919 32.299845 26.048369 31.704671 26.675201 C 31.190747 27.210995 30.912831 27.744344 30.842673 28.275417 C 30.370617 28.711528 29.982876 29.069885 29.805806 29.230354 C 29.603194 29.413971 29.411329 29.569137 29.227712 29.69577 C 29.044094 29.816071 28.871684 29.875632 28.713393 29.875632 C 28.403143 29.875632 28.160346 29.748777 27.98306 29.495511 C 27.812106 29.242246 27.725901 28.912422 27.725901 28.507197 C 27.725901 28.329912 27.757219 28.078055 27.820535 27.74881 C 29.099526 26.412835 30.096339 25.104213 30.811814 23.825223 C 31.527289 22.539901 31.885712 21.456679 31.885712 20.576582 C 31.885712 20.291658 31.8642 20.093484 31.819879 19.979514 C 31.775557 19.859213 31.687455 19.797798 31.55449 19.797798 z M 30.698664 21.679859 C 30.79997 21.679859 30.850902 21.751178 30.850902 21.896806 C 30.850902 22.086755 30.772606 22.368776 30.614315 22.742343 C 30.462356 23.115909 30.24882 23.538398 29.97656 24.006939 C 29.7043 24.47548 29.414525 24.913753 29.104275 25.325309 C 28.800357 25.736865 28.483059 26.105673 28.153814 26.428586 C 28.356426 25.491504 28.697133 24.563448 29.178337 23.645361 C 29.659541 22.720943 30.094363 22.100279 30.480592 21.783697 C 30.58823 21.714049 30.660674 21.679859 30.698664 21.679859 z M 26.452447 21.917203 C 26.167524 21.917203 25.893408 22.087067 25.62748 22.428975 C 25.361551 22.770883 25.228368 23.081215 25.228368 23.359807 C 25.228368 23.543424 25.298915 23.695651 25.43821 23.815952 C 25.583838 23.936253 25.734577 23.995814 25.892868 23.995814 C 26.190455 23.995814 26.468525 23.831829 26.728122 23.502584 C 26.987719 23.173339 27.119004 22.871826 27.119004 22.599566 C 27.119004 22.377958 27.054311 22.211034 26.927678 22.097065 C 26.801045 21.976764 26.642396 21.917203 26.452447 21.917203 z M 70.615978 25.316038 C 70.748943 25.316038 70.815534 25.389211 70.815534 25.534839 C 70.815534 25.674135 70.717624 25.896595 70.521344 26.200514 C 70.331395 26.498101 70.033711 26.811372 69.628486 27.140617 C 69.223262 27.469862 68.735611 27.74415 68.165763 27.965757 C 68.22908 27.592191 68.366217 27.247669 68.575161 26.931087 C 68.784105 26.614506 69.017095 26.338363 69.276692 26.104093 C 69.542621 25.869823 69.803134 25.680467 70.0564 25.534839 C 70.315997 25.389211 70.502009 25.316038 70.615978 25.316038 z M 56.42695 25.497754 C 55.654491 26.580464 54.992531 27.438286 54.441679 28.071449 C 53.890827 28.698281 53.283755 29.206788 52.618933 29.599349 C 52.441647 29.687992 52.318272 29.732855 52.248624 29.732855 C 52.128323 29.732855 52.03231 29.670354 51.962662 29.543722 C 51.893014 29.410757 51.859799 29.241979 51.859799 29.039366 C 51.859799 28.482183 52.208415 27.940571 52.904894 27.415046 C 53.607706 26.88952 54.780725 26.251219 56.42695 25.497754 z M 42.353129 25.668345 L 42.523883 27.055322 C 42.530214 27.105975 42.532112 27.156717 42.532112 27.20737 C 42.538443 27.258023 42.542398 27.314645 42.542398 27.377961 C 42.542398 27.909818 42.424875 28.330453 42.190604 28.640703 C 41.962665 28.944622 41.633663 29.18472 41.203112 29.362005 C 40.949847 28.963112 40.754027 28.694704 40.614731 28.555408 C 40.475435 28.416112 40.214922 28.305809 39.835024 28.223498 C 41.120346 26.963502 41.960568 26.111559 42.353129 25.668345 z M 75.565783 25.668345 L 75.736537 27.055322 C 75.742869 27.105975 75.744766 27.156717 75.744766 27.20737 C 75.751098 27.258023 75.755052 27.314645 75.755052 27.377961 C 75.755052 27.909818 75.637529 28.330453 75.403258 28.640703 C 75.17532 28.944622 74.846317 29.18472 74.415766 29.362005 C 74.162501 28.963112 73.966681 28.694704 73.827385 28.555408 C 73.688089 28.416112 73.427576 28.305809 73.047678 28.223498 C 74.333 26.963502 75.173222 26.111559 75.565783 25.668345 z M 35.950888 25.942773 C 35.900235 26.208702 35.814029 26.453594 35.693728 26.675201 C 35.573427 26.890477 35.42854 27.085712 35.257586 27.262998 C 35.086632 27.440283 34.814414 27.688115 34.440848 28.004696 C 34.073613 28.314947 33.836668 28.517915 33.72903 28.61289 C 33.653051 28.676206 33.48855 28.817759 33.235284 29.039366 C 32.988351 29.260974 32.80819 29.41026 32.694221 29.48624 C 32.580251 29.56222 32.478387 29.599349 32.389744 29.599349 C 32.29477 29.599349 32.214416 29.565159 32.1511 29.495511 C 32.087784 29.425863 32.056465 29.337992 32.056465 29.230354 C 32.056465 29.053068 32.111352 28.790539 32.21899 28.442299 C 32.326628 28.094059 32.450004 27.855046 32.5893 27.728414 C 32.747591 27.570123 33.205821 27.282222 33.965617 26.864334 C 34.725413 26.440115 35.387372 26.132723 35.950888 25.942773 z M 63.911318 26.40819 C 64.145588 26.40819 64.263112 26.526226 64.263112 26.760497 C 64.263112 27.00743 64.108418 27.362625 63.798168 27.824834 C 63.494249 28.287044 63.02811 28.846293 62.401278 29.504782 C 62.122686 29.352823 61.903298 29.270831 61.745007 29.258168 C 61.586716 29.239173 61.273373 29.255725 60.804832 29.306378 C 61.412669 28.419949 62.002185 27.717293 62.572032 27.198099 C 63.14821 26.672573 63.594736 26.40819 63.911318 26.40819 z "
     transform="scale(0.94937459,1.053325)" />
  <text
     xml:space="preserve"
     style="font-style:normal;font-variant:normal;font-weight:normal;font-stretch:normal;font-size:13.3333px;line-height:0.8;font-family:'Brush Script MT';-inkscape-font-specification:'Brush Script MT';text-align:center;text-anchor:middle;fill:#000000;stroke-width:0.812;stroke-dasharray:none"
     x="2.9410405"
     y="4.2890172"
     id="text6"><tspan
       sodipodi:role="line"
       id="tspan6"></tspan></text>
</svg>
